<svg xmlns="http://www.w3.org/2000/svg">
<defs>
<font id="DKCarambola" horiz-adv-x="600" >
  <font-face 
    font-family="DK Carambola"
    font-weight="400"
    font-stretch="normal"
    units-per-em="1000"
    panose-1="2 0 0 0 0 0 0 0 0 0"
    ascent="800"
    descent="-200"
    x-height="799"
    cap-height="800"
    bbox="-50 -150 903 999"
    underline-thickness="50"
    underline-position="-200"
    unicode-range="U+0020-20AC"
  />
<missing-glyph horiz-adv-x="953" 
d="M305 724q44 99 140 113q84 13 152 -40q74 -58 68 -148q-3 -52 -36 -105h-115v72q0 13 -11.5 20.5t-26.5 8.5q-2 0 -17 -0.5t-17 -0.5v-100h-49v217q-1 0 -4 -2l-3 -2q-50 -45 -50 -106q0 -60 39.5 -98t100.5 -43v-45q-101 2 -155 82.5t-16 176.5zM183 126q0 52 37 89.5
t89 37.5t90 -37.5t38 -89.5q0 -54 -37 -90.5t-91 -36.5q-1 0 -9 0.5t-10 0.5q-47 7 -77 43t-30 83zM214 125q0 -39 28.5 -66t67.5 -27t66 27t27 66q0 40 -27 67.5t-67 27.5q-39 0 -67 -28t-28 -67zM468 253l126 -162v162h30l-1 -253l-123 156v-156h-32v253zM443 696
q4 0 25 -2t25 -2q39 -6 52.5 -28.5t13.5 -63.5v-9h42q5 0 9.5 23.5t4.5 33.5q0 58 -41.5 99.5t-99.5 41.5q-20 0 -29 -3q-2 0 -2 -2v-88zM50 253h118v-33h-85v-116h69v-32h-70v-72h-32v253zM565 435h17q36 0 59.5 -22t23.5 -58q0 -23 -13.5 -43t-34.5 -29l-5 -1q-4 -2 -5 -2
l-6 -2h-36v157zM801 435h16q36 0 59.5 -22t23.5 -58q0 -23 -13 -43t-35 -29l-4 -1q-4 -2 -5 -2q-4 -2 -7 -2h-35v157zM712 222h-55v31h144v-31h-55v-222h-34v222zM426 376q0 25 17.5 42t42.5 17q24 0 41.5 -17t17.5 -42t-17.5 -42t-41.5 -17q-25 0 -42.5 17t-17.5 42z
M296 435h22l66 -112v112h21v-157h-21l-67 113v-113h-21v157zM824 0q2 2 8.5 8t9.5 9l8.5 8.5t8 10t6 10.5t5 12t1.5 12q0 21 -27.5 54.5t-27.5 58.5q0 30 28 63l6 6h44q-1 -1 -8 -7.5t-9 -8.5t-8 -8.5t-8 -10t-5.5 -9t-4.5 -11t-1 -11.5q0 -21 26.5 -54t26.5 -61
q0 -34 -28 -65q-5 -8 -8 -8zM53 435h21v-96h57v96h21v-157h-21v37h-57v-37h-21v157zM685 435h89v-21h-68v-76h48v-22h-48v-18h68v-20h-89v157zM223 435l59 -157h-21q-1 0 -2 3l-2 3l-10 27q-2 4 -3 4h-42l-14 -34l-2 -3h-21l55 152zM822 413v-115q24 0 40 16.5t16 40.5

<glyph glyph-name=".notdef" horiz-adv-x="953" 
d="M305 724q44 99 140 113q84 13 152 -40q74 -58 68 -148q-3 -52 -36 -105h-115v72q0 13 -11.5 20.5t-26.5 8.5q-2 0 -17 -0.5t-17 -0.5v-100h-49v217q-1 0 -4 -2l-3 -2q-50 -45 -50 -106q0 -60 39.5 -98t100.5 -43v-45q-101 2 -155 82.5t-16 176.5zM183 126q0 52 37 89.5
t89 37.5t90 -37.5t38 -89.5q0 -54 -37 -90.5t-91 -36.5q-1 0 -9 0.5t-10 0.5q-47 7 -77 43t-30 83zM214 125q0 -39 28.5 -66t67.5 -27t66 27t27 66q0 40 -27 67.5t-67 27.5q-39 0 -67 -28t-28 -67zM468 253l126 -162v162h30l-1 -253l-123 156v-156h-32v253zM443 696
q4 0 25 -2t25 -2q39 -6 52.5 -28.5t13.5 -63.5v-9h42q5 0 9.5 23.5t4.5 33.5q0 58 -41.5 99.5t-99.5 41.5q-20 0 -29 -3q-2 0 -2 -2v-88zM50 253h118v-33h-85v-116h69v-32h-70v-72h-32v253zM565 435h17q36 0 59.5 -22t23.5 -58q0 -23 -13.5 -43t-34.5 -29l-5 -1q-4 -2 -5 -2
l-6 -2h-36v157zM801 435h16q36 0 59.5 -22t23.5 -58q0 -23 -13 -43t-35 -29l-4 -1q-4 -2 -5 -2q-4 -2 -7 -2h-35v157zM712 222h-55v31h144v-31h-55v-222h-34v222zM426 376q0 25 17.5 42t42.5 17q24 0 41.5 -17t17.5 -42t-17.5 -42t-41.5 -17q-25 0 -42.5 17t-17.5 42z
M296 435h22l66 -112v112h21v-157h-21l-67 113v-113h-21v157zM824 0q2 2 8.5 8t9.5 9l8.5 8.5t8 10t6 10.5t5 12t1.5 12q0 21 -27.5 54.5t-27.5 58.5q0 30 28 63l6 6h44q-1 -1 -8 -7.5t-9 -8.5t-8 -8.5t-8 -10t-5.5 -9t-4.5 -11t-1 -11.5q0 -21 26.5 -54t26.5 -61
q0 -34 -28 -65q-5 -8 -8 -8zM53 435h21v-96h57v96h21v-157h-21v37h-57v-37h-21v157zM685 435h89v-21h-68v-76h48v-22h-48v-18h68v-20h-89v157zM223 435l59 -157h-21q-1 0 -2 3l-2 3l-10 27q-2 4 -3 4h-42l-14 -34l-2 -3h-21l55 152zM822 413v-115q24 0 40 16.5t16 40.5
q0 22 -14 40t-36 18h-6zM587 413v-115q24 0 40 16.5t16 40.5q0 22 -14.5 40t-35.5 18h-6zM448 376q0 -16 11 -27.5t27 -11.5q15 0 26.5 11.5t11.5 26.5q0 16 -11 27t-27 11t-27 -10.5t-11 -26.5zM446 297h79v-19h-79v19zM223 379l-14 -40h28z" />
    <glyph glyph-name=".null" horiz-adv-x="0" 
 />
    <glyph glyph-name="nonmarkingreturn" horiz-adv-x="333" 
 />
    <glyph glyph-name="space" unicode=" " horiz-adv-x="280" 
 />
    <glyph glyph-name="exclam" unicode="!" horiz-adv-x="200" 
d="M50 200v600h100v-600h-100zM50 50q0 21 14.5 35.5t35.5 14.5t35.5 -14.5t14.5 -35.5t-14.5 -35.5t-35.5 -14.5t-35.5 14.5t-14.5 35.5z" />
    <glyph glyph-name="quotedbl" unicode="&#x22;" horiz-adv-x="436" 
d="M193 718q0 -59 -41.5 -101t-100.5 -42v40q51 8 79 41q-33 0 -56.5 19.5t-23.5 52.5q0 29 21 50t50 21q36 0 54 -22.5t18 -58.5zM386 718q0 -59 -41.5 -101t-100.5 -42v40q51 8 79 41q-33 0 -56.5 19.5t-23.5 52.5q0 29 21 50t50 21q36 0 54 -22.5t18 -58.5z" />
    <glyph glyph-name="dollar" unicode="$" horiz-adv-x="502" 
d="M220 -100v102q-72 11 -121 67t-49 131h100q0 -33 19.5 -59.5t50.5 -36.5v258l-84 74q-86 70 -86 164q0 74 48.5 130.5t121.5 67.5v102h52v-101q75 -8 126.5 -65.5t51.5 -133.5h-100q0 35 -22.5 62t-55.5 35v-251l130 -117q40 -40 47.5 -96.5t-13 -106t-65 -86
t-99.5 -39.5v-101h-52zM318 276l-46 40v-214q33 8 55.5 35t22.5 63q0 42 -32 76zM150 600q0 -37 24 -66l46 -42v203q-31 -10 -50.5 -36t-19.5 -59z" />
    <glyph glyph-name="quotesingle" unicode="'" horiz-adv-x="243" 
d="M193 718q0 -59 -41.5 -101t-100.5 -42v40q51 8 79 41q-33 0 -56.5 19.5t-23.5 52.5q0 29 21 50t50 21q36 0 54 -22.5t18 -58.5z" />
    <glyph glyph-name="parenleft" unicode="(" horiz-adv-x="366" 
d="M150 400q0 -125 36.5 -206.5t129.5 -132.5v-58q-72 9 -124.5 43t-83 88.5t-44.5 120t-14 145.5q0 166 63 272.5t203 124.5v-58q-93 -50 -129.5 -132.5t-36.5 -206.5z" />
    <glyph glyph-name="parenright" unicode=")" horiz-adv-x="366" 
d="M216 400q0 124 -36.5 206.5t-129.5 132.5v58q140 -18 203 -124.5t63 -272.5q0 -80 -14 -145.5t-44.5 -120t-83 -88.5t-124.5 -43v58q93 51 129.5 132.5t36.5 206.5z" />
    <glyph glyph-name="comma" unicode="," horiz-adv-x="200" 
d="M50 50q0 21 14.5 35.5t35.5 14.5t35.5 -14.5t14.5 -35.5q0 -31 -21 -58t-52 -31q22 22 17 39q-19 2 -31.5 16.5t-12.5 33.5z" />
    <glyph glyph-name="hyphen" unicode="-" horiz-adv-x="500" 
d="M50 349v100h400v-100h-400z" />
    <glyph glyph-name="period" unicode="." horiz-adv-x="200" 
d="M50 50q0 21 14.5 35.5t35.5 14.5t35.5 -14.5t14.5 -35.5t-14.5 -35.5t-35.5 -14.5t-35.5 14.5t-14.5 35.5z" />
    <glyph glyph-name="slash" unicode="/" horiz-adv-x="556" 
d="M397 800h109l-347 -800h-109z" />
    <glyph glyph-name="zero" unicode="0" horiz-adv-x="900" 
d="M50 400q0 166 117 283t283 117t283 -117t117 -283t-117 -283t-283 -117t-283 117t-117 283zM150 400q0 -124 88 -212t212 -88t212 88t88 212t-88 212t-212 88t-212 -88t-88 -212z" />
    <glyph glyph-name="one" unicode="1" horiz-adv-x="300" 
d="M50 600v94q46 4 67 31.5t30 74.5h103v-800h-100v600h-100z" />
    <glyph glyph-name="two" unicode="2" horiz-adv-x="509" 
d="M50 0q8 15 93.5 155.5t150.5 266.5t65 178q0 41 -29.5 70.5t-70.5 29.5t-70.5 -29.5t-29.5 -70.5h-100q0 82 58.5 141t141.5 59q81 0 140.5 -57t59.5 -138v-5q-1 -49 -14 -91t-63 -138t-156 -271h233v-100h-409z" />
    <glyph glyph-name="three" unicode="3" 
d="M150 250q0 -62 44 -106t106 -44t106 44t44 106q0 58 -39 101t-97 48h-28l1 100h26q37 5 62 33.5t25 66.5q0 41 -29.5 70.5t-70.5 29.5t-70.5 -29t-29.5 -70h-100q0 82 59 140.5t141 58.5t141 -58.5t59 -141.5q0 -85 -59 -142q50 -34 79.5 -89t29.5 -118q0 -104 -73 -177
t-177 -73t-177 73t-73 177h100z" />
    <glyph glyph-name="four" unicode="4" horiz-adv-x="622" 
d="M50 200l239 600h112l-198 -500h169v100h100v-100h100v-100h-100l1 -200h-100l-1 200h-322z" />
    <glyph glyph-name="five" unicode="5" 
d="M300 0q-101 0 -174 70.5t-76 171.5h100q3 -59 46.5 -100.5t103.5 -41.5q62 0 106 44t44 106t-44 106t-106 44h-165l171 400h244v-100h-175l-86 -200q8 1 24 1q106 0 171.5 -74t65.5 -177q0 -104 -73 -177t-177 -73z" />
    <glyph glyph-name="six" unicode="6" 
d="M250 800h112l-133 -311q35 11 71 11q104 0 177 -73t73 -177t-73 -177t-177 -73t-177 73t-73 177q0 63 29 142.5t171 407.5zM150 250q0 -62 44 -106t106 -44t106 44t44 106t-44 106t-106 44t-106 -44t-44 -106z" />
    <glyph glyph-name="seven" unicode="7" horiz-adv-x="455" 
d="M269 700h-219v100h355l-249 -800h-106z" />
    <glyph glyph-name="eight" unicode="8" 
d="M100 599q0 83 59 141.5t141 58.5t141 -58.5t59 -141.5q0 -85 -59 -142q50 -34 79.5 -89t29.5 -118q0 -104 -73 -177t-177 -73t-177 73t-73 177q0 63 29.5 118t80.5 89q-60 58 -60 142zM150 250q0 -62 44 -106t106 -44t106 44t44 106q0 58 -39 101t-97 48h-28
q-57 -5 -96.5 -48t-39.5 -101zM200 599q0 -38 25 -66.5t62 -33.5h26q37 5 62 33.5t25 66.5q0 41 -29.5 70.5t-70.5 29.5t-70.5 -29.5t-29.5 -70.5z" />
    <glyph glyph-name="nine" unicode="9" 
d="M350 0h-112l133 311q-35 -11 -71 -11q-104 0 -177 73t-73 177t73 177t177 73t177 -73t73 -177q0 -63 -29 -142.5t-171 -407.5zM450 550q0 62 -44 106t-106 44t-106 -44t-44 -106t44 -106t106 -44t106 44t44 106z" />
    <glyph glyph-name="colon" unicode=":" horiz-adv-x="200" 
d="M50 650q0 21 14.5 35.5t35.5 14.5t35.5 -14.5t14.5 -35.5t-14.5 -35.5t-35.5 -14.5t-35.5 14.5t-14.5 35.5zM50 50q0 21 14.5 35.5t35.5 14.5t35.5 -14.5t14.5 -35.5t-14.5 -35.5t-35.5 -14.5t-35.5 14.5t-14.5 35.5z" />
    <glyph glyph-name="semicolon" unicode=";" horiz-adv-x="200" 
d="M50 650q0 21 14.5 35.5t35.5 14.5t35.5 -14.5t14.5 -35.5t-14.5 -35.5t-35.5 -14.5t-35.5 14.5t-14.5 35.5zM50 50q0 21 14.5 35.5t35.5 14.5t35.5 -14.5t14.5 -35.5q0 -31 -21 -58t-52 -31q22 22 17 39q-19 2 -31.5 16.5t-12.5 33.5z" />
    <glyph glyph-name="equal" unicode="=" horiz-adv-x="500" 
d="M50 275v100h400v-100h-400zM50 426v100h400v-100h-400z" />
    <glyph glyph-name="question" unicode="?" horiz-adv-x="500" 
d="M220 200v252q73 43 101.5 78t28.5 70q0 41 -29.5 70.5t-70.5 29.5t-70.5 -29.5t-29.5 -70.5h-100q0 82 59 141t141 59t141 -59t59 -141q0 -59 -27 -106.5t-103 -88.5v-205h-100zM220 50q0 21 14.5 35.5t35.5 14.5t35.5 -14.5t14.5 -35.5t-14.5 -35.5t-35.5 -14.5
t-35.5 14.5t-14.5 35.5z" />
    <glyph glyph-name="at" unicode="@" horiz-adv-x="900" 
d="M150 400q0 -124 88 -212t212 -88q39 0 70 8v-102q-34 -6 -70 -6q-166 0 -283 117t-117 283t117 283t283 117t283 -117t117 -283q0 -44 -8 -85t-26 -80t-52.5 -62.5t-81.5 -23.5q-62 0 -106 44q-63 -44 -142 -44q-104 0 -177 73.5t-73 176.5t73 176.5t177 73.5
q51 0 98 -21v21h86q-76 51 -168 51q-124 0 -212 -88t-88 -212zM434 249q58 0 99 36q-1 5 -1 14v213q-42 37 -98 37q-62 0 -106 -44t-44 -106t44 -106t106 -44zM632 299q0 -21 14.5 -35.5t35.5 -14.5t35.5 16.5t21 43t9 48.5t2.5 43q0 72 -31.5 134t-86.5 104v-339z" />
    <glyph glyph-name="A" unicode="A" 
d="M102 400l-52 100h100v100q0 82 59 141t141 59t141 -59t59 -141v-600h-100v400h-200v-400h-100v400h-48zM250 600v-100h200v100q0 41 -29.5 70.5t-70.5 29.5t-70.5 -29.5t-29.5 -70.5z" />
    <glyph glyph-name="B" unicode="B" horiz-adv-x="548" 
d="M50 0v800h100q82 -1 140.5 -59.5t58.5 -140.5q0 -60 -33 -110q80 -22 131 -88.5t51 -151.5q0 -104 -73 -177t-177 -73h-198zM150 400v-300h100q62 1 105 44.5t43 105.5t-44 106t-106 44h-98zM249 600q0 41 -29 70t-70 30v-200q41 0 70 29.5t29 70.5z" />
    <glyph glyph-name="C" unicode="C" horiz-adv-x="570" 
d="M150 400q0 -124 88 -212t212 -88q39 0 70 8v-102q-34 -6 -70 -6q-166 0 -283 117t-117 283t117 283t283 117q36 0 70 -6v-102q-37 8 -70 8q-124 0 -212 -88t-88 -212z" />
    <glyph glyph-name="D" unicode="D" horiz-adv-x="630" 
d="M50 0v800h130q166 0 283 -117t117 -283t-117 -283t-283 -117h-130zM180 700l-30 -1v-599h30q124 0 212 88t88 212t-88 212t-212 88z" />
    <glyph glyph-name="E" unicode="E" 
d="M100 400l-50 100h100v300h400v-100h-300v-200h200v-100h-200v-300h300v-100h-400v400h-50z" />
    <glyph glyph-name="F" unicode="F" 
d="M100 400l-50 100h100v300h400v-100h-300v-200h200v-100h-200v-400h-100v400h-50z" />
    <glyph glyph-name="G" unicode="G" horiz-adv-x="570" 
d="M150 400q0 -117 78 -202.5t192 -96.5v399h100v-494q-34 -6 -70 -6q-166 0 -283 117t-117 283t117 283t283 117q36 0 70 -6v-102q-37 8 -70 8q-124 0 -212 -88t-88 -212z" />
    <glyph glyph-name="H" unicode="H" 
d="M450 0v400h-200v-400h-100v400h-50l-50 100h100v300h100v-300h200v300h100v-800h-100z" />
    <glyph glyph-name="I" unicode="I" horiz-adv-x="200" 
d="M50 0v800h100v-800h-100z" />
    <glyph glyph-name="J" unicode="J" horiz-adv-x="500" 
d="M50 200h100q0 -41 29.5 -70.5t70.5 -29.5t70.5 29.5t29.5 70.5v600h100v-600q0 -82 -59 -141t-141 -59t-141 59t-59 141z" />
    <glyph glyph-name="K" unicode="K" horiz-adv-x="608" 
d="M558 800l-292 -323l280 -477h-116l-280 478v-478h-100v800h100v-303l274 303h134z" />
    <glyph glyph-name="L" unicode="L" horiz-adv-x="500" 
d="M50 0v800h100v-700h300v-100h-400z" />
    <glyph glyph-name="M" unicode="M" horiz-adv-x="723" 
d="M507 401l-146 -401l-144 401l-65 -401h-102l129 799l183 -508l183 508l128 -799h-102z" />
    <glyph glyph-name="N" unicode="N" horiz-adv-x="500" 
d="M350 0v412l-200 171v-583h-100v800l300 -257v257h100v-800h-100z" />
    <glyph glyph-name="O" unicode="O" horiz-adv-x="900" 
d="M50 400q0 166 117 283t283 117t283 -117t117 -283t-117 -283t-283 -117t-283 117t-117 283zM150 400q0 -124 88 -212t212 -88t212 88t88 212t-88 212t-212 88t-212 -88t-88 -212z" />
    <glyph glyph-name="P" unicode="P" horiz-adv-x="598" 
d="M100 400l-50 100h100v300l200 -1q82 -1 140 -59.5t58 -140.5t-58.5 -140.5t-141.5 -58.5h-98v-400h-100v400h-50zM350 500q41 0 69.5 29t28.5 70t-29.5 71t-70.5 30h-98v-200h100z" />
    <glyph glyph-name="Q" unicode="Q" horiz-adv-x="900" 
d="M640 -102l-66 122q-60 -20 -124 -20q-166 0 -283 117t-117 283t117 283t283 117t283 -117t117 -283q0 -105 -50 -194t-135 -143l63 -118zM150 400q0 -124 88 -212t212 -88q42 0 76 10l-122 229l88 47l126 -235q61 41 96.5 106.5t35.5 142.5q0 124 -88 212t-212 88
t-212 -88t-88 -212z" />
    <glyph glyph-name="R" unicode="R" horiz-adv-x="605" 
d="M100 400l-50 100h100v300l200 -1q82 -1 140 -59.5t58 -140.5q0 -79 -54.5 -136.5t-132.5 -62.5l194 -400h-111l-194 399v-399h-100v400h-50zM350 500q41 0 69.5 29t28.5 70t-29.5 71t-70.5 30h-98v-200h100z" />
    <glyph glyph-name="S" unicode="S" horiz-adv-x="420" 
d="M78 0v100h107q52 0 70.5 55t-9.5 105l-142 206q-70 91 -48 183q15 66 68 108.5t120 42.5h98v-100l-84 -1q-38 -1 -67.5 -20.5t-37.5 -55.5q-7 -39 10 -72l176 -262q29 -44 29.5 -96t-21.5 -94t-64 -70.5t-93 -28.5h-112z" />
    <glyph glyph-name="T" unicode="T" horiz-adv-x="500" 
d="M50 700v100h400v-100h-150v-700h-100v700h-150z" />
    <glyph glyph-name="U" unicode="U" horiz-adv-x="500" 
d="M50 200v600h100v-600q0 -41 29.5 -70.5t70.5 -29.5t70.5 29.5t29.5 70.5v600h100v-600q0 -82 -59 -141t-141 -59t-141 59t-59 141z" />
    <glyph glyph-name="V" unicode="V" horiz-adv-x="602" 
d="M155 800l146 -468l146 468h105l-251 -803l-251 803h105z" />
    <glyph glyph-name="W" unicode="W" horiz-adv-x="821" 
d="M410 799l161 -421l98 421h102l-177 -799l-183 508l-183 -508l-178 799h102l100 -421z" />
    <glyph glyph-name="X" unicode="X" horiz-adv-x="556" 
d="M506 800l-174 -400l174 -400h-109l-119 274l-119 -274h-109l173 400l-173 400h109l119 -274l119 274h109z" />
    <glyph glyph-name="Y" unicode="Y" horiz-adv-x="623" 
d="M256 0v408l-206 392h115l141 -268l153 268h114l-217 -395v-405h-100z" />
    <glyph glyph-name="Z" unicode="Z" horiz-adv-x="456" 
d="M269 700h-219v100h355l-219 -700h220v-100h-356z" />
    <glyph glyph-name="bracketleft" unicode="[" horiz-adv-x="250" 
d="M50 0v800h150v-52h-50v-700h50v-48h-150z" />
    <glyph glyph-name="backslash" unicode="\" horiz-adv-x="556" 
d="M50 800h109l347 -800h-109z" />
    <glyph glyph-name="bracketright" unicode="]" horiz-adv-x="250" 
d="M200 800v-800h-150v48h50v700h-50v52h150z" />
    <glyph glyph-name="underscore" unicode="_" 
d="M50 0v50h500v-50h-500z" />
    <glyph glyph-name="a" unicode="a" 
d="M102 400l-52 100h100v100q0 82 59 141t141 59t141 -59t59 -141v-600h-100v400h-200v-400h-100v400h-48zM250 600v-100h200v100q0 41 -29.5 70.5t-70.5 29.5t-70.5 -29.5t-29.5 -70.5z" />
    <glyph glyph-name="b" unicode="b" horiz-adv-x="548" 
d="M50 0v800h100q82 -1 140.5 -59.5t58.5 -140.5q0 -60 -33 -110q80 -22 131 -88.5t51 -151.5q0 -104 -73 -177t-177 -73h-198zM150 400v-300h100q62 1 105 44.5t43 105.5t-44 106t-106 44h-98zM249 600q0 41 -29 70t-70 30v-200q41 0 70 29.5t29 70.5z" />
    <glyph glyph-name="c" unicode="c" horiz-adv-x="570" 
d="M150 400q0 -124 88 -212t212 -88q39 0 70 8v-102q-34 -6 -70 -6q-166 0 -283 117t-117 283t117 283t283 117q36 0 70 -6v-102q-37 8 -70 8q-124 0 -212 -88t-88 -212z" />
    <glyph glyph-name="d" unicode="d" horiz-adv-x="630" 
d="M50 0v800h130q166 0 283 -117t117 -283t-117 -283t-283 -117h-130zM180 700l-30 -1v-599h30q124 0 212 88t88 212t-88 212t-212 88z" />
    <glyph glyph-name="e" unicode="e" 
d="M100 400l-50 100h100v300h400v-100h-300v-200h200v-100h-200v-300h300v-100h-400v400h-50z" />
    <glyph glyph-name="f" unicode="f" 
d="M100 400l-50 100h100v300h400v-100h-300v-200h200v-100h-200v-400h-100v400h-50z" />
    <glyph glyph-name="g" unicode="g" horiz-adv-x="570" 
d="M150 400q0 -117 78 -202.5t192 -96.5v399h100v-494q-34 -6 -70 -6q-166 0 -283 117t-117 283t117 283t283 117q36 0 70 -6v-102q-37 8 -70 8q-124 0 -212 -88t-88 -212z" />
    <glyph glyph-name="h" unicode="h" 
d="M450 0v400h-200v-400h-100v400h-50l-50 100h100v300h100v-300h200v300h100v-800h-100z" />
    <glyph glyph-name="i" unicode="i" horiz-adv-x="200" 
d="M50 0v800h100v-800h-100z" />
    <glyph glyph-name="j" unicode="j" horiz-adv-x="500" 
d="M50 200h100q0 -41 29.5 -70.5t70.5 -29.5t70.5 29.5t29.5 70.5v600h100v-600q0 -82 -59 -141t-141 -59t-141 59t-59 141z" />
    <glyph glyph-name="k" unicode="k" horiz-adv-x="608" 
d="M558 800l-292 -323l280 -477h-116l-280 478v-478h-100v800h100v-303l274 303h134z" />
    <glyph glyph-name="l" unicode="l" horiz-adv-x="500" 
d="M50 0v800h100v-700h300v-100h-400z" />
    <glyph glyph-name="m" unicode="m" horiz-adv-x="723" 
d="M507 401l-146 -401l-144 401l-65 -401h-102l129 799l183 -508l183 508l128 -799h-102z" />
    <glyph glyph-name="n" unicode="n" horiz-adv-x="500" 
d="M350 0v412l-200 171v-583h-100v800l300 -257v257h100v-800h-100z" />
    <glyph glyph-name="o" unicode="o" horiz-adv-x="900" 
d="M50 400q0 166 117 283t283 117t283 -117t117 -283t-117 -283t-283 -117t-283 117t-117 283zM150 400q0 -124 88 -212t212 -88t212 88t88 212t-88 212t-212 88t-212 -88t-88 -212z" />
    <glyph glyph-name="p" unicode="p" horiz-adv-x="598" 
d="M100 400l-50 100h100v300l200 -1q82 -1 140 -59.5t58 -140.5t-58.5 -140.5t-141.5 -58.5h-98v-400h-100v400h-50zM350 500q41 0 69.5 29t28.5 70t-29.5 71t-70.5 30h-98v-200h100z" />
    <glyph glyph-name="q" unicode="q" horiz-adv-x="900" 
d="M640 -102l-66 122q-60 -20 -124 -20q-166 0 -283 117t-117 283t117 283t283 117t283 -117t117 -283q0 -105 -50 -194t-135 -143l63 -118zM150 400q0 -124 88 -212t212 -88q42 0 76 10l-122 229l88 47l126 -235q61 41 96.5 106.5t35.5 142.5q0 124 -88 212t-212 88
t-212 -88t-88 -212z" />
    <glyph glyph-name="r" unicode="r" horiz-adv-x="605" 
d="M100 400l-50 100h100v300l200 -1q82 -1 140 -59.5t58 -140.5q0 -79 -54.5 -136.5t-132.5 -62.5l194 -400h-111l-194 399v-399h-100v400h-50zM350 500q41 0 69.5 29t28.5 70t-29.5 71t-70.5 30h-98v-200h100z" />
    <glyph glyph-name="s" unicode="s" horiz-adv-x="420" 
d="M78 0v100h107q52 0 70.5 55t-9.5 105l-142 206q-70 91 -48 183q15 66 68 108.5t120 42.5h98v-100l-84 -1q-38 -1 -67.5 -20.5t-37.5 -55.5q-7 -39 10 -72l176 -262q29 -44 29.5 -96t-21.5 -94t-64 -70.5t-93 -28.5h-112z" />
    <glyph glyph-name="t" unicode="t" horiz-adv-x="500" 
d="M50 700v100h400v-100h-150v-700h-100v700h-150z" />
    <glyph glyph-name="u" unicode="u" horiz-adv-x="500" 
d="M50 200v600h100v-600q0 -41 29.5 -70.5t70.5 -29.5t70.5 29.5t29.5 70.5v600h100v-600q0 -82 -59 -141t-141 -59t-141 59t-59 141z" />
    <glyph glyph-name="v" unicode="v" horiz-adv-x="602" 
d="M155 800l146 -468l146 468h105l-251 -803l-251 803h105z" />
    <glyph glyph-name="w" unicode="w" horiz-adv-x="821" 
d="M410 799l161 -421l98 421h102l-177 -799l-183 508l-183 -508l-178 799h102l100 -421z" />
    <glyph glyph-name="x" unicode="x" horiz-adv-x="556" 
d="M506 800l-174 -400l174 -400h-109l-119 274l-119 -274h-109l173 400l-173 400h109l119 -274l119 274h109z" />
    <glyph glyph-name="y" unicode="y" horiz-adv-x="623" 
d="M256 0v408l-206 392h115l141 -268l153 268h114l-217 -395v-405h-100z" />
    <glyph glyph-name="z" unicode="z" horiz-adv-x="456" 
d="M269 700h-219v100h355l-219 -700h220v-100h-356z" />
    <glyph glyph-name="bar" unicode="|" horiz-adv-x="200" 
d="M50 0v800h100v-800h-100z" />
    <glyph glyph-name="exclamdown" unicode="&#xa1;" horiz-adv-x="200" 
d="M150 600v-600h-100v600h100zM150 750q0 -21 -14.5 -35.5t-35.5 -14.5t-35.5 14.5t-14.5 35.5t14.5 35.5t35.5 14.5t35.5 -14.5t14.5 -35.5z" />
    <glyph glyph-name="sterling" unicode="&#xa3;" horiz-adv-x="650" 
d="M100 400l-50 100h100v100q0 82 59 141t141 59t141 -59t59 -141h-100q0 41 -29.5 70.5t-70.5 29.5t-70.5 -29.5t-29.5 -70.5v-100h50l50 -100h-100v-300h350v-100h-450v400h-50z" />
    <glyph glyph-name="yen" unicode="&#xa5;" horiz-adv-x="623" 
d="M100 250v98h156v52h-156v100h107l-157 300h115l141 -268l153 268h114l-165 -300h92v-100h-144v-52h144v-98h-144v-250h-100v250h-156z" />
    <glyph glyph-name="ordfeminine" unicode="&#xaa;" horiz-adv-x="398" 
d="M318 589q0 -12 8.5 -20.5t21.5 -8.5v-60q-36 0 -64 26q-37 -26 -84 -26q-61 0 -105.5 44t-44.5 105t44 105.5t106 44.5q32 0 59 -12v12h59v-210zM200 560q34 0 60 21q-1 2 -1 8v129q-25 20 -59 20q-38 0 -63.5 -26t-25.5 -63t25.5 -63t63.5 -26z" />
    <glyph glyph-name="guillemotleft" unicode="&#xab;" 
d="M50 334v132l242 134v-120l-148 -80l148 -84v-116zM308 334v132l242 134v-120l-148 -80l148 -84v-116z" />
    <glyph glyph-name="ordmasculine" unicode="&#xba;" horiz-adv-x="400" 
d="M50 650q0 61 44.5 105.5t105.5 44.5t105.5 -44.5t44.5 -105.5q0 -62 -44 -106t-106 -44q-61 0 -105.5 44.5t-44.5 105.5zM116 650q0 -37 23.5 -61t60.5 -24t61 24t24 61t-24 60.5t-61 23.5t-60.5 -23.5t-23.5 -60.5z" />
    <glyph glyph-name="guillemotright" unicode="&#xbb;" 
d="M292 466v-132l-242 -134v116l148 84l-148 80v120zM550 466v-132l-242 -134v116l148 84l-148 80v120z" />
    <glyph glyph-name="questiondown" unicode="&#xbf;" horiz-adv-x="500" 
d="M280 600v-252q-73 -43 -101.5 -78t-28.5 -70q0 -41 29.5 -70.5t70.5 -29.5t70.5 29.5t29.5 70.5h100q0 -82 -59 -141t-141 -59t-141 59t-59 141q0 59 27 106.5t103 88.5v205h100zM280 750q0 -21 -14.5 -35.5t-35.5 -14.5t-35.5 14.5t-14.5 35.5t14.5 35.5t35.5 14.5
t35.5 -14.5t14.5 -35.5z" />
    <glyph glyph-name="Agrave" unicode="&#xc0;" 
d="M102 400l-52 100h100v100q0 82 59 141t141 59t141 -59t59 -141v-600h-100v400h-200v-400h-100v400h-48zM250 600v-100h200v100q0 41 -29.5 70.5t-70.5 29.5t-70.5 -29.5t-29.5 -70.5zM259 980h113l67 -128h-113z" />
    <glyph glyph-name="Aacute" unicode="&#xc1;" 
d="M102 400l-52 100h100v100q0 82 59 141t141 59t141 -59t59 -141v-600h-100v400h-200v-400h-100v400h-48zM250 600v-100h200v100q0 41 -29.5 70.5t-70.5 29.5t-70.5 -29.5t-29.5 -70.5zM371 850h-113l67 128h113z" />
    <glyph glyph-name="Acircumflex" unicode="&#xc2;" 
d="M102 400l-52 100h100v100q0 82 59 141t141 59t141 -59t59 -141v-600h-100v400h-200v-400h-100v400h-48zM250 600v-100h200v100q0 41 -29.5 70.5t-70.5 29.5t-70.5 -29.5t-29.5 -70.5zM300 966h100l100 -116h-116l-34 50l-37 -50h-113z" />
    <glyph glyph-name="Atilde" unicode="&#xc3;" 
d="M102 400l-52 100h100v100q0 82 59 141t141 59t141 -59t59 -141v-600h-100v400h-200v-400h-100v400h-48zM250 600v-100h200v100q0 41 -29.5 70.5t-70.5 29.5t-70.5 -29.5t-29.5 -70.5zM409 959h80q-15 -111 -91 -111q-23 0 -91 31q-10 -5 -16 -32h-78q8 50 34 80.5
t63 30.5q17 0 46.5 -16.5t39.5 -16.5q9 0 13 34z" />
    <glyph glyph-name="Adieresis" unicode="&#xc4;" 
d="M102 400l-52 100h100v100q0 82 59 141t141 59t141 -59t59 -141v-600h-100v400h-200v-400h-100v400h-48zM250 600v-100h200v100q0 41 -29.5 70.5t-70.5 29.5t-70.5 -29.5t-29.5 -70.5zM400 932q0 18 4 30h91q5 -15 5 -30q0 -30 -14.5 -51t-35.5 -21t-35.5 21t-14.5 51z
M200 932q0 18 4 30h91q5 -15 5 -30q0 -30 -14.5 -51t-35.5 -21t-35.5 21t-14.5 51z" />
    <glyph glyph-name="Aring" unicode="&#xc5;" 
d="M200 849q0 62 44 106t106 44t106 -44t44 -106q0 -51 -30 -90q80 -60 80 -159v-600h-100v400h-200v-400h-100v400h-48l-52 100h100v100q0 100 79 159q-29 40 -29 90zM250 600v-100h200v100q0 38 -25.5 66t-62.5 33h-24q-38 -5 -63 -33t-25 -66zM300 849q0 -19 11.5 -32.5
t28.5 -16.5h19q18 3 29.5 17t11.5 32q0 21 -14.5 35.5t-35.5 14.5t-35.5 -14.5t-14.5 -35.5z" />
    <glyph glyph-name="AE" unicode="&#xc6;" horiz-adv-x="802" 
d="M150 600q0 83 59 141.5t143 58.5h400v-100h-300v-200h200v-100h-200v-300h300v-100h-400v400h-102v-400h-100v400h-48l-52 100h100v100zM250 600v-100h102v200q-41 0 -71.5 -29.5t-30.5 -70.5z" />
    <glyph glyph-name="Ccedilla" unicode="&#xc7;" horiz-adv-x="570" 
d="M300 0v29q-112 45 -181 146t-69 225q0 166 117 283t283 117q36 0 70 -6v-102q-37 8 -70 8q-124 0 -212 -88t-88 -212t88 -212t212 -88q39 0 70 8v-102q-34 -6 -70 -6h-50q0 -62 -44 -106t-106 -44q-13 0 -20 1v103q8 -4 20 -4q21 0 35.5 14.5t14.5 35.5z" />
    <glyph glyph-name="Egrave" unicode="&#xc8;" 
d="M100 400l-50 100h100v300h400v-100h-300v-200h200v-100h-200v-300h300v-100h-400v400h-50zM221 978h113l67 -128h-113z" />
    <glyph glyph-name="Eacute" unicode="&#xc9;" 
d="M100 400l-50 100h100v300h400v-100h-300v-200h200v-100h-200v-300h300v-100h-400v400h-50zM323 850h-113l67 128h113z" />
    <glyph glyph-name="Ecircumflex" unicode="&#xca;" 
d="M100 400l-50 100h100v300h400v-100h-300v-200h200v-100h-200v-300h300v-100h-400v400h-50zM300 964h100l100 -116h-116l-34 50l-37 -50h-113z" />
    <glyph glyph-name="Edieresis" unicode="&#xcb;" 
d="M100 400l-50 100h100v300h400v-100h-300v-200h200v-100h-200v-300h300v-100h-400v400h-50zM400 924q0 18 4 30h91q5 -15 5 -30q0 -30 -14.5 -51t-35.5 -21t-35.5 21t-14.5 51zM200 924q0 18 4 30h91q5 -15 5 -30q0 -30 -14.5 -51t-35.5 -21t-35.5 21t-14.5 51z" />
    <glyph glyph-name="Igrave" unicode="&#xcc;" horiz-adv-x="200" 
d="M50 0v800h100v-800h-100zM10 978h113l67 -128h-113z" />
    <glyph glyph-name="Iacute" unicode="&#xcd;" horiz-adv-x="200" 
d="M50 0v800h100v-800h-100zM123 850h-113l67 128h113z" />
    <glyph glyph-name="Icircumflex" unicode="&#xce;" horiz-adv-x="200" 
d="M50 0v800h100v-800h-100zM50 964h100l100 -116h-116l-34 50l-37 -50h-113z" />
    <glyph glyph-name="Idieresis" unicode="&#xcf;" horiz-adv-x="200" 
d="M50 0v800h100v-800h-100zM150 922q0 18 4 30h91q5 -15 5 -30q0 -30 -14.5 -51t-35.5 -21t-35.5 21t-14.5 51zM-50 922q0 18 4 30h91q5 -15 5 -30q0 -30 -14.5 -51t-35.5 -21t-35.5 21t-14.5 51z" />
    <glyph glyph-name="Eth" unicode="&#xd0;" horiz-adv-x="730" 
d="M100 400l-50 100h100v300h130q166 0 283 -117t117 -283t-117 -283t-283 -117h-130v400h-50zM280 700l-30 -1v-199h50l50 -100h-100v-300h30q124 0 212 88t88 212t-88 212t-212 88z" />
    <glyph glyph-name="Ntilde" unicode="&#xd1;" horiz-adv-x="500" 
d="M350 0v412l-200 171v-583h-100v800l300 -257v257h100v-800h-100zM309 961h80q-15 -111 -91 -111q-23 0 -91 31q-10 -5 -16 -32h-78q8 50 34 80.5t63 30.5q17 0 46.5 -16.5t39.5 -16.5q9 0 13 34z" />
    <glyph glyph-name="Ograve" unicode="&#xd2;" horiz-adv-x="900" 
d="M50 400q0 166 117 283t283 117t283 -117t117 -283t-117 -283t-283 -117t-283 117t-117 283zM150 400q0 -124 88 -212t212 -88t212 88t88 212t-88 212t-212 88t-212 -88t-88 -212zM360 978h113l67 -128h-113z" />
    <glyph glyph-name="Oacute" unicode="&#xd3;" horiz-adv-x="900" 
d="M50 400q0 166 117 283t283 117t283 -117t117 -283t-117 -283t-283 -117t-283 117t-117 283zM150 400q0 -124 88 -212t212 -88t212 88t88 212t-88 212t-212 88t-212 -88t-88 -212zM473 850h-113l67 128h113z" />
    <glyph glyph-name="Ocircumflex" unicode="&#xd4;" horiz-adv-x="900" 
d="M50 400q0 166 117 283t283 117t283 -117t117 -283t-117 -283t-283 -117t-283 117t-117 283zM150 400q0 -124 88 -212t212 -88t212 88t88 212t-88 212t-212 88t-212 -88t-88 -212zM400 966h100l100 -116h-116l-34 50l-37 -50h-113z" />
    <glyph glyph-name="Otilde" unicode="&#xd5;" horiz-adv-x="900" 
d="M50 400q0 166 117 283t283 117t283 -117t117 -283t-117 -283t-283 -117t-283 117t-117 283zM150 400q0 -124 88 -212t212 -88t212 88t88 212t-88 212t-212 88t-212 -88t-88 -212zM508 963h80q-15 -111 -91 -111q-23 0 -91 31q-10 -5 -16 -32h-78q8 50 34 80.5t63 30.5
q17 0 46.5 -16.5t39.5 -16.5q9 0 13 34z" />
    <glyph glyph-name="Odieresis" unicode="&#xd6;" horiz-adv-x="900" 
d="M50 400q0 166 117 283t283 117t283 -117t117 -283t-117 -283t-283 -117t-283 117t-117 283zM150 400q0 -124 88 -212t212 -88t212 88t88 212t-88 212t-212 88t-212 -88t-88 -212zM500 922q0 18 4 30h91q5 -15 5 -30q0 -30 -14.5 -51t-35.5 -21t-35.5 21t-14.5 51z
M300 922q0 18 4 30h91q5 -15 5 -30q0 -30 -14.5 -51t-35.5 -21t-35.5 21t-14.5 51z" />
    <glyph glyph-name="Oslash" unicode="&#xd8;" horiz-adv-x="900" 
d="M569 800h109l-25 -56q90 -53 143.5 -144.5t53.5 -199.5q0 -166 -117 -283t-283 -117q-60 0 -112 15l-7 -15h-109l24 56q-90 53 -143 144t-53 200q0 166 117 283t283 117q60 0 112 -16zM750 400q0 77 -37 143.5t-100 107.5l-235 -543q37 -8 72 -8q124 0 212 88t88 212z
M150 400q0 -78 36.5 -144.5t99.5 -107.5l236 543q-34 9 -72 9q-124 0 -212 -88t-88 -212z" />
    <glyph glyph-name="Ugrave" unicode="&#xd9;" horiz-adv-x="500" 
d="M50 200v600h100v-600q0 -41 29.5 -70.5t70.5 -29.5t70.5 29.5t29.5 70.5v600h100v-600q0 -82 -59 -141t-141 -59t-141 59t-59 141zM160 978h113l67 -128h-113z" />
    <glyph glyph-name="Uacute" unicode="&#xda;" horiz-adv-x="500" 
d="M50 200v600h100v-600q0 -41 29.5 -70.5t70.5 -29.5t70.5 29.5t29.5 70.5v600h100v-600q0 -82 -59 -141t-141 -59t-141 59t-59 141zM273 850h-113l67 128h113z" />
    <glyph glyph-name="Ucircumflex" unicode="&#xdb;" horiz-adv-x="500" 
d="M50 200v600h100v-600q0 -41 29.5 -70.5t70.5 -29.5t70.5 29.5t29.5 70.5v600h100v-600q0 -82 -59 -141t-141 -59t-141 59t-59 141zM200 966h100l100 -116h-116l-34 50l-37 -50h-113z" />
    <glyph glyph-name="Udieresis" unicode="&#xdc;" horiz-adv-x="500" 
d="M50 200v600h100v-600q0 -41 29.5 -70.5t70.5 -29.5t70.5 29.5t29.5 70.5v600h100v-600q0 -82 -59 -141t-141 -59t-141 59t-59 141zM300 922q0 18 4 30h91q5 -15 5 -30q0 -30 -14.5 -51t-35.5 -21t-35.5 21t-14.5 51zM100 922q0 18 4 30h91q5 -15 5 -30q0 -30 -14.5 -51
t-35.5 -21t-35.5 21t-14.5 51z" />
    <glyph glyph-name="Yacute" unicode="&#xdd;" horiz-adv-x="623" 
d="M256 0v408l-206 392h115l141 -268l153 268h114l-217 -395v-405h-100zM334 850h-113l67 128h113z" />
    <glyph glyph-name="Thorn" unicode="&#xde;" horiz-adv-x="598" 
d="M150 0v400h-50l-50 100h100v300h100v-300h98q83 0 141.5 -58.5t58.5 -140.5t-58 -141t-140 -60h-100v-100h-100zM350 400h-100v-200h98q41 0 70.5 30t29.5 71t-28.5 70t-69.5 29z" />
    <glyph glyph-name="germandbls" unicode="&#xdf;" horiz-adv-x="650" 
d="M302 0v100h50q62 1 105 44.5t43 105.5t-44 106t-106 44h-48v113q49 30 49 87q-2 40 -30 69.5t-71 30.5q-41 0 -70.5 -29.5t-29.5 -70.5v-600h-100v600q0 83 59 141.5t143 58.5q7 0 19 -1q76 -9 128 -65.5t52 -133.5q0 -60 -33 -110q80 -22 131 -88.5t51 -151.5
q0 -104 -73 -177t-177 -73h-48z" />
    <glyph glyph-name="agrave" unicode="&#xe0;" 
d="M102 400l-52 100h100v100q0 82 59 141t141 59t141 -59t59 -141v-600h-100v400h-200v-400h-100v400h-48zM250 600v-100h200v100q0 41 -29.5 70.5t-70.5 29.5t-70.5 -29.5t-29.5 -70.5zM259 980h113l67 -128h-113z" />
    <glyph glyph-name="aacute" unicode="&#xe1;" 
d="M102 400l-52 100h100v100q0 82 59 141t141 59t141 -59t59 -141v-600h-100v400h-200v-400h-100v400h-48zM250 600v-100h200v100q0 41 -29.5 70.5t-70.5 29.5t-70.5 -29.5t-29.5 -70.5zM371 850h-113l67 128h113z" />
    <glyph glyph-name="acircumflex" unicode="&#xe2;" 
d="M102 400l-52 100h100v100q0 82 59 141t141 59t141 -59t59 -141v-600h-100v400h-200v-400h-100v400h-48zM250 600v-100h200v100q0 41 -29.5 70.5t-70.5 29.5t-70.5 -29.5t-29.5 -70.5zM300 966h100l100 -116h-116l-34 50l-37 -50h-113z" />
    <glyph glyph-name="atilde" unicode="&#xe3;" 
d="M102 400l-52 100h100v100q0 82 59 141t141 59t141 -59t59 -141v-600h-100v400h-200v-400h-100v400h-48zM250 600v-100h200v100q0 41 -29.5 70.5t-70.5 29.5t-70.5 -29.5t-29.5 -70.5zM409 959h80q-15 -111 -91 -111q-23 0 -91 31q-10 -5 -16 -32h-78q8 50 34 80.5
t63 30.5q17 0 46.5 -16.5t39.5 -16.5q9 0 13 34z" />
    <glyph glyph-name="adieresis" unicode="&#xe4;" 
d="M102 400l-52 100h100v100q0 82 59 141t141 59t141 -59t59 -141v-600h-100v400h-200v-400h-100v400h-48zM250 600v-100h200v100q0 41 -29.5 70.5t-70.5 29.5t-70.5 -29.5t-29.5 -70.5zM400 932q0 18 4 30h91q5 -15 5 -30q0 -30 -14.5 -51t-35.5 -21t-35.5 21t-14.5 51z
M200 932q0 18 4 30h91q5 -15 5 -30q0 -30 -14.5 -51t-35.5 -21t-35.5 21t-14.5 51z" />
    <glyph glyph-name="aring" unicode="&#xe5;" 
d="M200 849q0 62 44 106t106 44t106 -44t44 -106q0 -51 -30 -90q80 -60 80 -159v-600h-100v400h-200v-400h-100v400h-48l-52 100h100v100q0 100 79 159q-29 40 -29 90zM250 600v-100h200v100q0 38 -25.5 66t-62.5 33h-24q-38 -5 -63 -33t-25 -66zM300 849q0 -19 11.5 -32.5
t28.5 -16.5h19q18 3 29.5 17t11.5 32q0 21 -14.5 35.5t-35.5 14.5t-35.5 -14.5t-14.5 -35.5z" />
    <glyph glyph-name="ae" unicode="&#xe6;" horiz-adv-x="802" 
d="M150 600q0 83 59 141.5t143 58.5h400v-100h-300v-200h200v-100h-200v-300h300v-100h-400v400h-102v-400h-100v400h-48l-52 100h100v100zM250 600v-100h102v200q-41 0 -71.5 -29.5t-30.5 -70.5z" />
    <glyph glyph-name="ccedilla" unicode="&#xe7;" horiz-adv-x="570" 
d="M300 0v29q-112 45 -181 146t-69 225q0 166 117 283t283 117q36 0 70 -6v-102q-37 8 -70 8q-124 0 -212 -88t-88 -212t88 -212t212 -88q39 0 70 8v-102q-34 -6 -70 -6h-50q0 -62 -44 -106t-106 -44q-13 0 -20 1v103q8 -4 20 -4q21 0 35.5 14.5t14.5 35.5z" />
    <glyph glyph-name="egrave" unicode="&#xe8;" 
d="M100 400l-50 100h100v300h400v-100h-300v-200h200v-100h-200v-300h300v-100h-400v400h-50zM221 978h113l67 -128h-113z" />
    <glyph glyph-name="eacute" unicode="&#xe9;" 
d="M100 400l-50 100h100v300h400v-100h-300v-200h200v-100h-200v-300h300v-100h-400v400h-50zM323 850h-113l67 128h113z" />
    <glyph glyph-name="ecircumflex" unicode="&#xea;" 
d="M100 400l-50 100h100v300h400v-100h-300v-200h200v-100h-200v-300h300v-100h-400v400h-50zM300 964h100l100 -116h-116l-34 50l-37 -50h-113z" />
    <glyph glyph-name="edieresis" unicode="&#xeb;" 
d="M100 400l-50 100h100v300h400v-100h-300v-200h200v-100h-200v-300h300v-100h-400v400h-50zM400 924q0 18 4 30h91q5 -15 5 -30q0 -30 -14.5 -51t-35.5 -21t-35.5 21t-14.5 51zM200 924q0 18 4 30h91q5 -15 5 -30q0 -30 -14.5 -51t-35.5 -21t-35.5 21t-14.5 51z" />
    <glyph glyph-name="igrave" unicode="&#xec;" horiz-adv-x="200" 
d="M50 0v800h100v-800h-100zM10 978h113l67 -128h-113z" />
    <glyph glyph-name="iacute" unicode="&#xed;" horiz-adv-x="200" 
d="M50 0v800h100v-800h-100zM123 850h-113l67 128h113z" />
    <glyph glyph-name="icircumflex" unicode="&#xee;" horiz-adv-x="200" 
d="M50 0v800h100v-800h-100zM50 964h100l100 -116h-116l-34 50l-37 -50h-113z" />
    <glyph glyph-name="idieresis" unicode="&#xef;" horiz-adv-x="200" 
d="M50 0v800h100v-800h-100zM150 922q0 18 4 30h91q5 -15 5 -30q0 -30 -14.5 -51t-35.5 -21t-35.5 21t-14.5 51zM-50 922q0 18 4 30h91q5 -15 5 -30q0 -30 -14.5 -51t-35.5 -21t-35.5 21t-14.5 51z" />
    <glyph glyph-name="eth" unicode="&#xf0;" horiz-adv-x="730" 
d="M100 400l-50 100h100v300h130q166 0 283 -117t117 -283t-117 -283t-283 -117h-130v400h-50zM280 700l-30 -1v-199h50l50 -100h-100v-300h30q124 0 212 88t88 212t-88 212t-212 88z" />
    <glyph glyph-name="ntilde" unicode="&#xf1;" horiz-adv-x="500" 
d="M350 0v412l-200 171v-583h-100v800l300 -257v257h100v-800h-100zM309 961h80q-15 -111 -91 -111q-23 0 -91 31q-10 -5 -16 -32h-78q8 50 34 80.5t63 30.5q17 0 46.5 -16.5t39.5 -16.5q9 0 13 34z" />
    <glyph glyph-name="ograve" unicode="&#xf2;" horiz-adv-x="900" 
d="M50 400q0 166 117 283t283 117t283 -117t117 -283t-117 -283t-283 -117t-283 117t-117 283zM150 400q0 -124 88 -212t212 -88t212 88t88 212t-88 212t-212 88t-212 -88t-88 -212zM360 978h113l67 -128h-113z" />
    <glyph glyph-name="oacute" unicode="&#xf3;" horiz-adv-x="900" 
d="M50 400q0 166 117 283t283 117t283 -117t117 -283t-117 -283t-283 -117t-283 117t-117 283zM150 400q0 -124 88 -212t212 -88t212 88t88 212t-88 212t-212 88t-212 -88t-88 -212zM473 850h-113l67 128h113z" />
    <glyph glyph-name="ocircumflex" unicode="&#xf4;" horiz-adv-x="900" 
d="M50 400q0 166 117 283t283 117t283 -117t117 -283t-117 -283t-283 -117t-283 117t-117 283zM150 400q0 -124 88 -212t212 -88t212 88t88 212t-88 212t-212 88t-212 -88t-88 -212zM400 966h100l100 -116h-116l-34 50l-37 -50h-113z" />
    <glyph glyph-name="otilde" unicode="&#xf5;" horiz-adv-x="900" 
d="M50 400q0 166 117 283t283 117t283 -117t117 -283t-117 -283t-283 -117t-283 117t-117 283zM150 400q0 -124 88 -212t212 -88t212 88t88 212t-88 212t-212 88t-212 -88t-88 -212zM508 963h80q-15 -111 -91 -111q-23 0 -91 31q-10 -5 -16 -32h-78q8 50 34 80.5t63 30.5
q17 0 46.5 -16.5t39.5 -16.5q9 0 13 34z" />
    <glyph glyph-name="odieresis" unicode="&#xf6;" horiz-adv-x="900" 
d="M50 400q0 166 117 283t283 117t283 -117t117 -283t-117 -283t-283 -117t-283 117t-117 283zM150 400q0 -124 88 -212t212 -88t212 88t88 212t-88 212t-212 88t-212 -88t-88 -212zM500 922q0 18 4 30h91q5 -15 5 -30q0 -30 -14.5 -51t-35.5 -21t-35.5 21t-14.5 51z
M300 922q0 18 4 30h91q5 -15 5 -30q0 -30 -14.5 -51t-35.5 -21t-35.5 21t-14.5 51z" />
    <glyph glyph-name="oslash" unicode="&#xf8;" horiz-adv-x="900" 
d="M569 800h109l-25 -56q90 -53 143.5 -144.5t53.5 -199.5q0 -166 -117 -283t-283 -117q-60 0 -112 15l-7 -15h-109l24 56q-90 53 -143 144t-53 200q0 166 117 283t283 117q60 0 112 -16zM750 400q0 77 -37 143.5t-100 107.5l-235 -543q37 -8 72 -8q124 0 212 88t88 212z
M150 400q0 -78 36.5 -144.5t99.5 -107.5l236 543q-34 9 -72 9q-124 0 -212 -88t-88 -212z" />
    <glyph glyph-name="ugrave" unicode="&#xf9;" horiz-adv-x="500" 
d="M50 200v600h100v-600q0 -41 29.5 -70.5t70.5 -29.5t70.5 29.5t29.5 70.5v600h100v-600q0 -82 -59 -141t-141 -59t-141 59t-59 141zM160 978h113l67 -128h-113z" />
    <glyph glyph-name="uacute" unicode="&#xfa;" horiz-adv-x="500" 
d="M50 200v600h100v-600q0 -41 29.5 -70.5t70.5 -29.5t70.5 29.5t29.5 70.5v600h100v-600q0 -82 -59 -141t-141 -59t-141 59t-59 141zM273 850h-113l67 128h113z" />
    <glyph glyph-name="ucircumflex" unicode="&#xfb;" horiz-adv-x="500" 
d="M50 200v600h100v-600q0 -41 29.5 -70.5t70.5 -29.5t70.5 29.5t29.5 70.5v600h100v-600q0 -82 -59 -141t-141 -59t-141 59t-59 141zM200 966h100l100 -116h-116l-34 50l-37 -50h-113z" />
    <glyph glyph-name="udieresis" unicode="&#xfc;" horiz-adv-x="500" 
d="M50 200v600h100v-600q0 -41 29.5 -70.5t70.5 -29.5t70.5 29.5t29.5 70.5v600h100v-600q0 -82 -59 -141t-141 -59t-141 59t-59 141zM300 922q0 18 4 30h91q5 -15 5 -30q0 -30 -14.5 -51t-35.5 -21t-35.5 21t-14.5 51zM100 922q0 18 4 30h91q5 -15 5 -30q0 -30 -14.5 -51
t-35.5 -21t-35.5 21t-14.5 51z" />
    <glyph glyph-name="yacute" unicode="&#xfd;" horiz-adv-x="623" 
d="M256 0v408l-206 392h115l141 -268l153 268h114l-217 -395v-405h-100zM334 850h-113l67 128h113z" />
    <glyph glyph-name="thorn" unicode="&#xfe;" horiz-adv-x="598" 
d="M150 0v400h-50l-50 100h100v300h100v-300h98q83 0 141.5 -58.5t58.5 -140.5t-58 -141t-140 -60h-100v-100h-100zM350 400h-100v-200h98q41 0 70.5 30t29.5 71t-28.5 70t-69.5 29z" />
    <glyph glyph-name="ydieresis" unicode="&#xff;" horiz-adv-x="623" 
d="M256 0v408l-206 392h115l141 -268l153 268h114l-217 -395v-405h-100zM361 922q0 18 4 30h91q5 -15 5 -30q0 -30 -14.5 -51t-35.5 -21t-35.5 21t-14.5 51zM161 922q0 18 4 30h91q5 -15 5 -30q0 -30 -14.5 -51t-35.5 -21t-35.5 21t-14.5 51z" />
    <glyph glyph-name="dotlessi" unicode="&#x131;" horiz-adv-x="200" 
d="M50 0v800h100v-800h-100z" />
    <glyph glyph-name="OE" unicode="&#x152;" horiz-adv-x="900" 
d="M450 800q4 0 12 -0.5t12 -0.5h376v-100h-300v-200h200v-100h-200v-300h300v-100h-400v1q-166 0 -283 117t-117 283t117 283t283 117zM400 399l-50 100h100v201q-124 0 -212 -88t-88 -212t88 -212t212 -88v299h-50z" />
    <glyph glyph-name="oe" unicode="&#x153;" horiz-adv-x="900" 
d="M450 800q4 0 12 -0.5t12 -0.5h376v-100h-300v-200h200v-100h-200v-300h300v-100h-400v1q-166 0 -283 117t-117 283t117 283t283 117zM400 399l-50 100h100v201q-124 0 -212 -88t-88 -212t88 -212t212 -88v299h-50z" />
    <glyph glyph-name="Ydieresis" unicode="&#x178;" horiz-adv-x="623" 
d="M256 0v408l-206 392h115l141 -268l153 268h114l-217 -395v-405h-100zM361 922q0 18 4 30h91q5 -15 5 -30q0 -30 -14.5 -51t-35.5 -21t-35.5 21t-14.5 51zM161 922q0 18 4 30h91q5 -15 5 -30q0 -30 -14.5 -51t-35.5 -21t-35.5 21t-14.5 51z" />
    <glyph glyph-name="florin" unicode="&#x192;" 
d="M100 400l-50 100h100v300h400v-100h-300v-200h200v-100h-200v-400h-100v400h-50z" />
    <glyph glyph-name="quoteleft" unicode="&#x2018;" horiz-adv-x="243" 
d="M50 656q0 59 41.5 101t100.5 42v-40q-51 -8 -79 -41q33 0 56.5 -19.5t23.5 -52.5q0 -29 -21 -50t-50 -21q-36 0 -54 22.5t-18 58.5z" />
    <glyph glyph-name="quoteright" unicode="&#x2019;" horiz-adv-x="243" 
d="M193 718q0 -59 -41.5 -101t-100.5 -42v40q51 8 79 41q-33 0 -56.5 19.5t-23.5 52.5q0 29 21 50t50 21q36 0 54 -22.5t18 -58.5z" />
    <glyph glyph-name="quotesinglbase" unicode="&#x201a;" horiz-adv-x="243" 
d="M193 62q0 -59 -41.5 -101t-100.5 -42v40q51 8 79 41q-33 0 -56.5 19.5t-23.5 52.5q0 29 21 50t50 21q36 0 54 -22.5t18 -58.5z" />
    <glyph glyph-name="quotedblleft" unicode="&#x201c;" horiz-adv-x="436" 
d="M243 656q0 59 41.5 101t100.5 42v-40q-51 -8 -79 -41q33 0 56.5 -19.5t23.5 -52.5q0 -29 -21 -50t-50 -21q-36 0 -54 22.5t-18 58.5zM50 656q0 59 41.5 101t100.5 42v-40q-51 -8 -79 -41q33 0 56.5 -19.5t23.5 -52.5q0 -29 -21 -50t-50 -21q-36 0 -54 22.5t-18 58.5z" />
    <glyph glyph-name="quotedblright" unicode="&#x201d;" horiz-adv-x="436" 
d="M193 718q0 -59 -41.5 -101t-100.5 -42v40q51 8 79 41q-33 0 -56.5 19.5t-23.5 52.5q0 29 21 50t50 21q36 0 54 -22.5t18 -58.5zM386 718q0 -59 -41.5 -101t-100.5 -42v40q51 8 79 41q-33 0 -56.5 19.5t-23.5 52.5q0 29 21 50t50 21q36 0 54 -22.5t18 -58.5z" />
    <glyph glyph-name="quotedblbase" unicode="&#x201e;" horiz-adv-x="436" 
d="M193 62q0 -59 -41.5 -101t-100.5 -42v40q51 8 79 41q-33 0 -56.5 19.5t-23.5 52.5q0 29 21 50t50 21q36 0 54 -22.5t18 -58.5zM386 62q0 -59 -41.5 -101t-100.5 -42v40q51 8 79 41q-33 0 -56.5 19.5t-23.5 52.5q0 29 21 50t50 21q36 0 54 -22.5t18 -58.5z" />
    <glyph glyph-name="ellipsis" unicode="&#x2026;" 
d="M50 50q0 21 14.5 35.5t35.5 14.5t35.5 -14.5t14.5 -35.5t-14.5 -35.5t-35.5 -14.5t-35.5 14.5t-14.5 35.5zM250 50q0 21 14.5 35.5t35.5 14.5t35.5 -14.5t14.5 -35.5t-14.5 -35.5t-35.5 -14.5t-35.5 14.5t-14.5 35.5zM450 50q0 21 14.5 35.5t35.5 14.5t35.5 -14.5
t14.5 -35.5t-14.5 -35.5t-35.5 -14.5t-35.5 14.5t-14.5 35.5z" />
    <glyph glyph-name="guilsinglleft" unicode="&#x2039;" horiz-adv-x="342" 
d="M50 334v132l242 134v-120l-148 -80l148 -84v-116z" />
    <glyph glyph-name="guilsinglright" unicode="&#x203a;" horiz-adv-x="342" 
d="M292 466v-132l-242 -134v116l148 84l-148 80v120z" />
    <glyph glyph-name="Euro" unicode="&#x20ac;" horiz-adv-x="670" 
d="M100 250l-50 100h103q-3 24 -3 50h-50l-50 100h112q34 131 141.5 215.5t246.5 84.5q36 0 70 -6v-102q-37 8 -70 8q-97 0 -174.5 -56t-108.5 -144h233l50 -100h-300q0 -29 4 -50h146l50 -100h-160q40 -69 108.5 -109.5t151.5 -40.5q39 0 70 8v-102q-34 -6 -70 -6
q-124 0 -225 69t-146 181h-79z" />
    </font>
</defs>
</svg>
